<?xml version="1.0" encoding="utf-8"?>
<!-- Generator: Adobe Illustrator 25.4.1, SVG Export Plug-In . SVG Version: 6.00 Build 0)  -->
<svg version="1.1" id="Warstwa_1" xmlns="http://www.w3.org/2000/svg" xmlns:xlink="http://www.w3.org/1999/xlink" x="0px" y="0px"
	 viewBox="0 0 2375 916" style="enable-background:new 0 0 2375 916;" xml:space="preserve">
<style type="text/css">
	.st0{fill:#F5B6D3;}
	.st1{fill:#FFFFFF;}
	.st2{fill:#95D3E3;}
	.st3{fill:#004F92;}
	.st4{fill:url(#SVGID_1_);}
</style>
<g>
	<g>
		<path class="st0" d="M1491.3,505.2c-13.4-1.6-22.7-3.7-31.4-13.9c-8.7-10.2-10.6-25.6-4.5-36.5c11.9-21.1,51-11.5,73.6,0.7
			c3.3-6.7,11.1-15.8,14.9-19.3c30.2-22.2,61-29.5,103.5-18.5c-0.4-14.6,11-25.8,22.6-33.4c18.5-12.1,46.7-18.1,62.3,0.1
			c9.2,10.8,9.9,27.1,3.4,38.6s-15.9,15.2-29.1,17.1c12.5,5.9,15.8,24.6,16.5,34.8c-1.9,13.4-4,21.7-10,30.9
			c-23.4,36.1-69,50.6-112.2,56.7c-20.1,2.8-41.9,3.3-60.4-7.2s-31.4-35.2-22.4-53.2C1507.2,505.7,1503,506.1,1491.3,505.2"/>
	</g>
	<g>
		<path class="st1" d="M1588.5,470.4c-19.1,2.9-21.7,7.6-30.1,17.4c-1.9,1.6-5,7.1-5.5,9.6c-0.9,3-1.5,9.4,1.5,13
			c11.3,13.4,27.9,16.7,44.4,14.9c16.4-1.8,31.2-9.8,44.6-18.8c5.6-3.8,11.2-7.8,15.1-13.3c1.3-1.9,2.5-4,2.6-6.4
			c0.2-5.2-4.4-9.5-8.9-12.5c-12.1-7.9-26.4-11.9-40.1-11.2C1603.6,463.6,1594.1,464.2,1588.5,470.4"/>
	</g>
	<g>
		<path class="st2" d="M1586.4,462.1c-3.8,2-5.4,4.4-5.7,8.7c-0.5,7.2,4.3,14.7,11,17.9s14.7,2.1,20-2.3c3.6-3,8.5-8.3,7-13.1
			c-1.4-4.5-1.5-7.4-10-11C1600.1,458.6,1588.9,460.9,1586.4,462.1"/>
	</g>
	<g>
		<path class="st3" d="M1642.3,459.2c-2.7,2.3-2.7,6.4,0.5,8.9s8.4-0.1,8.2-4.1C1650.9,460,1645.5,457.1,1642.3,459.2"/>
	</g>
	<g>
		<path class="st3" d="M1552.4,477.8c-2.9-0.1-5.8,1.8-6.5,4.6s0.9,6.3,3.7,7.5c2.8,1.2,7.7-1.1,8.3-4.5
			C1558.5,482.1,1555.3,477.9,1552.4,477.8"/>
	</g>
	<g>
		<path class="st0" d="M1595.5,559.8c0.5,9.4-4.9,24-10.8,30.8c-7.2,8.2-14.9,15.9-23.2,23c-3.6,3.1-7.4,6.1-9.8,10.3
			s-3.1,9.8-0.4,14.2c4.1,6.7,13.7,7.1,20.4,4.2c17.3-7.5,24.1-29.2,40-39.2c2.4-1.5,5.4-2.7,8.1-1.4c3.4,1.7,4.1,6.3,4,10.1
			c-0.6,26-12,51.9-3,77.1c0.9,2.6,2,5.1,3.9,7.2c4.6,5.1,12.6,5.4,18.2,2.3c5.5-3.1,9-8.9,11.7-14.7c5.2-11.3,8-23.8,8.4-36.6
			c0.4-13.1-1.2-28.3,7.7-37.1c1.4-1.4,3.2-2.6,5.2-2.9c4.2-0.6,8.2,2.8,11.3,6c4.6,4.8,8.8,10,12.5,15.5
			c4.3,6.2,8.2,13.1,14.5,17.1s15.9,3.7,18.6-2.9c0.9-2.1,0.9-4.6,0.8-7c-0.8-15.5-7.8-31.2-19.2-42.5c-3.8-3.8-8.1-7.2-10.8-11.9
			c-2.6-4.7-2.9-11.2,1.1-14.1c5.4-4,13.2,1.1,20.1,3.1c5.9,1.7,12.6,0.6,16.4-3.8c3.8-4.4,3.6-12.4-1.1-16.5
			c-3.2-2.8-7.5-3.4-11.6-3.6c-8.5-0.5-17,0-25.2,1.6c-5.6,1.1-11.3,2.6-17.1,1.6c-5.8-1-11.8-5.6-12.3-11.5"/>
	</g>
</g>
<g>
	<g>
		
			<linearGradient id="SVGID_1_" gradientUnits="userSpaceOnUse" x1="1011.9268" y1="45.3072" x2="1223.1857" y2="45.3072" gradientTransform="matrix(0.9326 0.3608 0.3608 -0.9326 4.21 444.2995)">
			<stop  offset="0.1333" style="stop-color:#0BAAE0"/>
			<stop  offset="0.2775" style="stop-color:#06A8DE"/>
			<stop  offset="0.4144" style="stop-color:#00A1D8"/>
			<stop  offset="0.5484" style="stop-color:#0095CE"/>
			<stop  offset="0.6806" style="stop-color:#0084C1"/>
			<stop  offset="0.8116" style="stop-color:#006FAF"/>
			<stop  offset="0.9399" style="stop-color:#00569A"/>
			<stop  offset="1" style="stop-color:#01498F"/>
		</linearGradient>
		<path class="st4" d="M920.6,773.1c7.9-26.5,30.7-47,56.7-56.3s54.8-8.6,81.8-2.5c12,2.7,24,6.5,34.5,12.8
			c22.3,13.3,37.2,38.2,38.5,64.1c1.4,28.3-12.7,55.7-32.2,76.3c-6.9,7.2-14.6,13.9-23.9,17.3c-9.3,3.5-20.4,3.3-28.5-2.4
			c11.5-9.7,20.6-22.2,26.5-36c-3.9-4.3-11.2-3.2-15.6,0.4c-4.4,3.6-6.9,9.1-10,13.9c-4.8,7.8-11.4,14.6-19,19.7
			c-1.2-6-15-1.7-14.6-7.8c0.1-0.9,0.5-1.6,0.9-2.4c7.5-13.5,14.7-27.2,21.5-41c1-2.1,2.1-4.3,2.1-6.6c0-6-6.5-9.7-12.3-11.3
			c-9.2-2.7-9.7-3.9-19.3-3.2c-2.3,0.2-11.1,1.7-13.1,3c-2.2,1.5-7.1,5.2-10.3,12.7c-3.1,7.4-7.1,16.2-11,28.4
			c-4,0.1-8.1,0.2-12.1,0.3c-1.6,0,1,1.7-0.3,0.8c-2-1.4-0.5-3.8-0.3-6.2c1.6-14,9.4-26.7,17.4-38.3c-2.1-2.1-8.1-2.1-10,0.1
			c-1.9,2.2-3.7,2.8-6.9,10.6c-3.1,7.8-6.4,20.4-8.6,33c-3.6-3.4-10.7-0.6-13.6-4.6c-1.1-1.4-1.1-3.4-1.1-5.2
			c0.5-20.9,12.5-39.7,26-55.7c2.5-3,5.2-6.1,6.4-9.8s0.7-8.4-2.3-10.8c-4.8-3.9-11.9-0.4-16.5,3.6c-10,8.6-17.9,19.6-23,31.7
			C920.9,798.7,918.6,781.2,920.6,773.1"/>
	</g>
	<g>
		<g>
			<path class="st3" d="M977.3,740.5c2.2,4.1,6.4,7.2,11,7.8c4.9,0.7,10-1.1,13.3-4.8c0.9-1,1-2.5,0-3.5c-0.9-0.9-2.6-1-3.5,0
				c-2.2,2.5-5.6,3.9-8.7,3.5c-3.4-0.4-6.2-2.5-7.7-5.5c-0.6-1.2-2.3-1.6-3.4-0.9C977,737.8,976.7,739.3,977.3,740.5L977.3,740.5z"
				/>
		</g>
	</g>
	<g>
		<g>
			<path class="st3" d="M1019.3,756.6c0.7,3.9,1.5,7.9,3.9,11.1c2,2.7,4.5,4.8,7.5,6.2c6.4,3,13.6,2.7,19.9-0.5
				c6.5-3.3,11.6-9.3,14.3-16c1.5-3.7,1.9-7.9,0.3-11.7c-1.4-3.5-4.1-6.2-6.9-8.5c-3.4-2.8-6.9-5.5-11-7.2c-2-0.8-4.1-1.2-6.3-1
				c-1.2,0.1-2.5,0.3-3.3,1.3c-1,1-1.1,2.4-0.4,3.7c1.6,2.8,5.9,0.3,4.3-2.5c0-0.1-0.1-0.1-0.1-0.2c0.1,0.6,0.2,1.3,0.3,1.9
				c-0.1,1.1-1.5,0.9-0.3,0.9c0.4,0,0.8,0,1.2,0c0.6,0,1.2,0.2,1.7,0.3c1.6,0.4,3,1.2,4.4,2c2.5,1.6,5,3.4,7.2,5.4
				c2,1.7,4,3.8,4.8,6.4c1,3,0.1,6.2-1.2,9c-4.6,9.4-15.2,16.9-25.8,12.7c-2.4-0.9-4.6-2.5-6.2-4.5c-2.3-2.8-2.9-6.6-3.5-10.1
				c-0.2-1.3-1.9-2.1-3.1-1.7C1019.7,753.9,1019.1,755.3,1019.3,756.6L1019.3,756.6z"/>
		</g>
	</g>
	<g>
		<g>
			<path class="st3" d="M1121.2,819.9c2.4,7.1,6,14.1,11.7,19.2c5.4,4.8,12.6,7.4,19.9,6.5c4.1-0.5,7.8-2.2,10.8-4.9
				c2.4-2.2-1.2-5.7-3.5-3.5c-4.2,3.9-10.4,4.4-15.7,2.9c-5.9-1.7-10.6-6.2-13.8-11.3c-2-3.2-3.4-6.5-4.6-10
				C1125,815.5,1120.2,816.8,1121.2,819.9L1121.2,819.9z"/>
		</g>
	</g>
	<g>
		<g>
			<g>
				<path class="st0" d="M1165.6,836.3c1.3-5.3,4.6-10.1,9.3-12.9c0.5-0.3,1.2-0.8,1.8-0.8c0.1,0,0.6,0,0.3-0.1
					c-0.4,0,0.2-0.3-0.2-0.1c-0.2,0.1-0.5,0.9-0.7,1.1c-0.4,0.7-0.9,1.3-1.4,2c-2,2.6-4.3,4.9-6.5,7.1c-0.9,0.9-1,2.3-0.2,3.3
					c0.7,0.9,2.2,1.4,3.2,0.6c2.9-2.2,6.4-3.4,10-3.5c1.9,0,3.7,0.2,5.5,0.8c0.3,0.1,0.6,0.3,1,0.4c0.3,0.1,0.2,0.5,0-0.1
					s0.1-0.4,0-0.4s-0.8,0.5-0.9,0.5c-3.7,1.7-8.2,2.5-12.2,2.7c-4.3,0.3-8.6-0.1-12.8-1.2c0.2,1.5,0.4,3,0.6,4.6
					c1.2-0.6,2.6-0.7,3.9-0.4c3.1,0.7,4.5-4.1,1.3-4.8c-2.7-0.6-5.3-0.3-7.7,0.9c-1.9,1-1.4,4.1,0.6,4.6c8.4,2.1,17.3,1.9,25.6-0.8
					c1.9-0.6,4-1.3,5.4-2.7c1.6-1.7,1.7-4.2,0.2-5.9c-2.3-2.7-7.3-3.2-10.6-3.1c-4.4,0.1-8.8,1.5-12.4,4.2c1,1.3,2,2.6,3,3.9
					c3-3.1,6-6.2,8.4-9.8c1.3-1.9,2.4-4.3,1-6.5c-1.2-1.9-3.5-2.6-5.6-2.2c-1.9,0.4-3.7,1.6-5.2,2.7c-1.6,1.2-3,2.5-4.2,4
					c-2.5,3.1-4.4,6.6-5.3,10.5C1160,838.1,1164.9,839.4,1165.6,836.3L1165.6,836.3z"/>
			</g>
		</g>
		<g>
			<g>
				<path class="st0" d="M1174.8,822.3c-3.2,2.9-5.6,6.6-7.1,10.7c-0.4,1.2,0.4,2.5,1.4,2.9c1.2,0.5,2.4,0,3.1-1
					c1.8-2.6,3.2-5.3,4.2-8.3c0.9-2.4-2.5-4.1-4.2-2.4c-3,3-5.6,6.3-7.8,9.9c-1.5,2.4,1.9,5.1,3.9,3c1.1-1.1,2.1-2.1,3.2-3.2
					c2-2-0.6-5.4-3-3.9c-0.6,0.4-1.2,0.7-1.8,1.1c-0.6,0.4-1.4,0.8-2,1.3c-1.2,1.2-0.8,3.3,0.3,4.4c1.9,1.9,4.9,1.6,7.3,1.8
					c2.7,0.2,5.5,0.3,8.2,0.5c2.8,0.2,5.4,0.4,7.8-1.4c1.6-1.3,0.5-3.6-1.1-4.2c-4.7-1.6-9.6-2.3-14.6-2c-2.8,0.1-3.4,4-0.7,4.9
					c4.6,1.5,9.5,1.6,14.2,0.5c2.3-0.6,2.5-4.4,0-4.8c-3.9-0.7-7.7-0.7-11.5-0.1c-1.3,0.2-2.1,1.9-1.7,3.1c0.4,1.4,1.7,1.9,3.1,1.7
					c2.9-0.4,6-0.4,8.9,0.1c0-1.6,0-3.2,0-4.8c-3.8,0.9-7.8,0.7-11.5-0.5c-0.2,1.6-0.4,3.3-0.7,4.9c4.5-0.2,8.9,0.4,13.2,1.9
					c-0.4-1.4-0.7-2.8-1.1-4.2c0.2-0.2-0.4,0.1-0.5,0.1c0.3-0.1-0.6,0-0.6,0c-0.8,0-1.6-0.1-2.4-0.1c-1.7-0.1-3.4-0.2-5.1-0.3
					s-3.4-0.2-5.1-0.3c-0.5,0-0.9-0.1-1.4-0.1c-0.2,0-1.1-0.1-0.7,0l-0.7-0.2c0.3-0.3,0.6,1.3,0.6,1c-0.4,0.7-0.8,1.4-1.2,2.2
					c1.1-0.7,2.2-1.3,3.3-2c-1-1.3-2-2.6-3-3.9c-1.1,1.1-2.1,2.1-3.2,3.2c1.3,1,2.6,2,3.9,3c2-3.3,4.3-6.2,7-8.9
					c-1.4-0.8-2.8-1.6-4.2-2.4c-0.9,2.5-2.2,4.9-3.7,7.1c1.5,0.6,3,1.3,4.6,1.9c1.2-3.3,3.2-6.2,5.8-8.5c1-0.9,0.9-2.6,0-3.5
					C1177.4,821.3,1175.8,821.4,1174.8,822.3L1174.8,822.3z"/>
			</g>
		</g>
	</g>
</g>
</svg>
